<?xml version="1.0" encoding="utf-8"?>
<!-- Generator: Adobe Illustrator 26.0.0, SVG Export Plug-In . SVG Version: 6.00 Build 0)  -->
<svg version="1.1" id="simle-svg" xmlns="http://www.w3.org/2000/svg" 
	width="100" height="50" viewBox="200 150 700 400" >
<style type="text/css">
	.st0{display:none;}
	.st1{display:inline;}
	.st2{fill:#661A38;}
	.st3{fill:#FFB4C2;}
	.st4{display:inline;fill:#2CCCDD;}
	.st5{fill:#FFFFFF;}
	.st6{fill:#FF7D78;}
	.st7{fill:#2CCCDD;}
	.st8{fill-rule:evenodd;clip-rule:evenodd;fill:#FF9B95;}
	.st9{fill:black;stroke:white;stroke-width:1.5px;}
	.st10{display:inline;fill-rule:evenodd;clip-rule:evenodd;fill:#FF9B95;}
	.st11{display:inline;fill:#FFFFFF;}
	.st12,
	path[class^='cheeck']{fill:#FF9B95;}
</style>
<g class="st0">
	<g class="st1">
		<path class="st2" d="M606.3,432.5c1.6-26-17-45.2-43-44.6c-26.2,0.7-44.3,20.4-44.3,46.3c0,8.6,20,7.2,20-1.7
			c0-15.3,8.7-32.8,26.2-31.5c16.3,1.3,22.1,19.1,21.2,33.2C585.8,442.7,605.8,441.5,606.3,432.5L606.3,432.5z"/>
	</g>
	<g class="st1">
		<path class="st3" d="M830,457.1c0,19.6-36.6,35.4-81.8,35.4c-45.2,0-81.8-15.9-81.8-35.4c0-19.6,36.6-35.4,81.8-35.4
			C793.4,421.6,830,437.5,830,457.1z"/>
		<path class="st3" d="M292.9,457.1c0,19.6,36.6,35.4,81.8,35.4c45.2,0,81.8-15.9,81.8-35.4c0-19.6-36.6-35.4-81.8-35.4
			C329.5,421.6,292.9,437.5,292.9,457.1z"/>
	</g>
	<g class="st1">
		<g>
			<path class="st2" d="M361.9,347.6c26.4,12,62.7,10.9,82.8-12.2c2.6-3-2.2-10.2-5.9-8.4c-25.3,12.2-48.9,17.6-76,7.7
				C352.6,331.1,355.2,344.5,361.9,347.6z"/>
		</g>
		<g>
			<path class="st2" d="M766.9,347.6c-26.4,12-62.7,10.9-82.8-12.2c-2.6-3,2.2-10.2,5.9-8.4c25.3,12.2,48.9,17.6,76,7.7
				C776.2,331.1,773.7,344.5,766.9,347.6z"/>
		</g>
	</g>
	<g class="st1">
		<path class="st2" d="M445.5,402c-27-23.6-74.5-24.4-101,0.3c-2.6,2.4,1.1,8.9,4.4,7.1c16.8-9.3,38.5-11.9,57.4-9.5
			c15.5,1.9,25.1,11.4,38.9,16.4c1.4,0.5,4,0.1,4.5-1.6c0.3-0.9,0.6-1.9,0.8-2.8C451.7,408,448,404.3,445.5,402z"/>
		<path class="st2" d="M680.5,401.4c27.3-23.2,74.8-23.4,101,1.5c2.6,2.5-1.2,8.9-4.5,7c-16.7-9.5-38.3-12.4-57.3-10.3
			c-15.6,1.7-25.3,11-39.2,15.9c-1.4,0.5-4,0.1-4.4-1.6c-0.3-0.9-0.5-1.9-0.8-2.8C674.2,407.3,677.9,403.6,680.5,401.4z"/>
	</g>
	<path class="st4" d="M814.5,290c0,0-59.7,94-1.7,94C861.4,384.1,840.3,314,814.5,290z"/>
</g>
<g class="st0">
	<g class="st1">
		<path class="st3" d="M842,438.7c0,19.9-37.2,36-83.1,36c-45.9,0-83.1-16.1-83.1-36s37.2-36,83.1-36
			C804.8,402.7,842,418.8,842,438.7z"/>
		<path class="st3" d="M296.6,438.7c0,19.9,37.2,36,83.1,36c45.9,0,83.1-16.1,83.1-36s-37.2-36-83.1-36
			C333.8,402.7,296.6,418.8,296.6,438.7z"/>
	</g>
	<g class="st1">
		<g>
			<path class="st2" d="M428.6,290.1c-26.8-12.2-63.7-11-84.1,12.4c-2.6,3,2.2,10.3,6,8.5c25.7-12.4,49.7-17.8,77.2-7.9
				C438.1,306.8,435.5,293.3,428.6,290.1z"/>
		</g>
		<g>
			<path class="st2" d="M684.6,327.2c23.1-18.3,59.1-26.1,84.6-8.3c3.3,2.3,0.4,10.6-3.8,9.7c-27.9-5.9-52.5-5.3-76.8,11
				C679.4,345.7,678.6,331.9,684.6,327.2z"/>
		</g>
	</g>
	<g class="st1">
		<path class="st2" d="M710.5,372.4c21-9.1,43.5-14.4,67-15.2c12.5-0.4,3.9-13-4.6-13.4c-24.1-1.1-47.1,5-69.2,14.2
			c-14.5,6.1-30.8,12.6-38.7,26.5c-7,6.2-8.5,20.3,4,15.8c37.5-13.6,70.1-6.2,105.2,10.7c5.2,2.5,11.8-7.4,8.2-11.6
			C764.6,379,737.4,371,710.5,372.4z"/>
		<g>
			<circle class="st2" cx="389.2" cy="384.7" r="56.7"/>
		</g>
	</g>
	<g class="st1">
		<g>
			<path class="st5" d="M564.9,436.8c-29.5,0-55.3-33.4-63.5-16.5c-8.2,16.9,11.9,80.3,70.7,80.3s75.9-65.5,62.9-79.5
				C621.9,407.1,594.4,436.8,564.9,436.8z"/>
			<g>
				<path class="st2" d="M565.1,436.1c-16.8-0.1-30.6-10.3-45-17.5c-4.2-2.1-9.8-4.9-14.7-3.3c-3.9,1.3-5.7,5.4-6.3,9.1
					c-1.7,9.3,0.9,19.4,4.3,28c4.6,11.9,11.9,22.8,21.4,31.3c11.1,9.8,25.1,15.8,39.8,17.2c15.4,1.4,31.1-1.6,44.2-10.1
					c10.7-6.9,19.1-17,24.6-28.5c4.4-9.2,7.4-19.8,6.6-30.1c-0.3-3.5-1-7.2-3-10.1c-3-4.4-8.1-5.9-13.2-5.3
					c-7.2,0.9-14,4.4-20.5,7.4c-8.1,3.8-16.3,7.7-25,10c-4.3,1.1-8.8,1.8-13.3,1.8c-1.2,0-1.1,1.3,0.1,1.3
					c17.5-0.1,32.6-9.7,48.3-16.2c5.1-2.1,11.8-4.8,17.2-2.4c3.5,1.5,5.5,4.8,6.5,8.3c2.4,8.8,0.5,18.7-2.4,27.1
					c-3.9,11.3-10.5,21.7-19.4,29.7c-10.6,9.5-24.1,14.9-38.4,15.8c-15.1,1-30.4-2.7-43.1-11.1c-10.7-7.1-19.2-17.4-25.1-28.8
					c-4.6-9-8-19.3-8.2-29.5c-0.1-3.4,0.2-6.9,1.7-10c0.9-1.8,2.3-3.5,4.3-4c2.1-0.5,4.4,0.1,6.4,0.7c6.3,2.1,12,5.9,17.7,9.1
					c7.1,3.9,14.4,7.6,22.2,9.6c3.8,1,7.8,1.6,11.7,1.6c0.4,0,1.1-0.1,1.2-0.6C566,436.4,565.5,436.1,565.1,436.1z"/>
			</g>
		</g>
		<path class="st2" d="M632,447.2c-27.5,17.8-62.1,24.9-94.1,15.9c-1.3-0.4-0.5,2,0.2,2.3c31.7,15.3,71.2,7,99.1-12.3
			C639.9,451.2,634.9,445.3,632,447.2z"/>
	</g>
</g>
<g class="st0">
	<g class="st1">
		<ellipse class="st3" cx="758.9" cy="443.1" rx="83.1" ry="36"/>
		<ellipse class="st3" cx="379.7" cy="443.1" rx="83.1" ry="36"/>
	</g>
	<g class="st1">
		
			<ellipse transform="matrix(0.1602 -0.9871 0.9871 0.1602 230.3988 1055.4739)" class="st2" cx="735.5" cy="392.3" rx="56.7" ry="56.7"/>
		
			<ellipse transform="matrix(0.8702 -0.4927 0.4927 0.8702 -140.9762 249.5526)" class="st2" cx="403.1" cy="392.3" rx="56.7" ry="56.7"/>
	</g>
	<g class="st1">
		<path class="st2" d="M439.4,307.2c-14.9-4.7-30.1-3.5-45.5-3.2c-10.8,0.2-24.5-1.6-33.9,4.5c-3.3,2.1,1.6,7.1,3.6,7.9
			c13.3,4.9,28,3.9,42.1,4.2c12.2,0.2,26.1,2.2,37.4-3C447.9,315.4,442.6,308.2,439.4,307.2z"/>
		<path class="st2" d="M699.2,307.2c14.9-4.7,30.1-3.5,45.5-3.2c10.8,0.2,24.5-1.6,33.9,4.5c3.3,2.1-1.6,7.1-3.6,7.9
			c-13.3,4.9-28,3.9-42.1,4.2c-12.2,0.2-26.1,2.2-37.4-3C690.7,315.4,696,308.2,699.2,307.2z"/>
	</g>
	<g class="st1">
		<g>
			<path class="st5" d="M572.6,448c-32.8,0-61.6-2.3-64.2-5c-5.9-6.4-10.1-40.9,0-50.6c6.3-6.1,28.1-9.6,59.7-9.6
				c32.2,0,63.1,3.8,65,6.8c3.9,6.3,4.2,42.9,1.3,52.4C633.4,445,611.9,448,572.6,448C572.6,448,572.6,448,572.6,448z"/>
			<path class="st2" d="M568.1,383.6c33.3,0,61.9,3.9,64.3,6.5c3.7,6.1,4,42.6,1.2,51.7c-0.2,0.3-2.3,2.5-19.7,4
				c-10.8,1-25.5,1.5-41.3,1.5c-15.3,0-30.7-0.5-42.4-1.4c-18.6-1.4-21-3.2-21.2-3.4c-5.7-6.1-9.6-40.3-0.1-49.5
				C515.1,387,536.7,383.6,568.1,383.6 M568.1,381.9c-26.6,0-52.7,2.6-60.3,9.9c-10.3,10-6.2,45.1,0,51.8c3.1,3.3,34.1,5.3,64.8,5.3
				c30.7,0,61.1-2,62.5-6.6c2.9-9.3,2.8-46.5-1.4-53.1C631.5,385.5,599.5,381.9,568.1,381.9L568.1,381.9z"/>
		</g>
		<path class="st2" d="M630.5,408c-37.8-2.9-77.1,0.4-114.6,6.7c-0.4,0.1-0.1,0.9,0.2,0.9c38.3,2.3,77.7,2.3,115.9-0.9
			C634.6,414.4,632.4,408.2,630.5,408z"/>
	</g>
</g>
<g class="st0">
	<g class="st1">
		<ellipse class="st3" cx="379.7" cy="448.8" rx="83.1" ry="36"/>
		<ellipse class="st3" cx="758.9" cy="448.8" rx="83.1" ry="36"/>
	</g>
	<g class="st1">
		<g>
			<path class="st2" d="M393.1,321c17.8,23.5,50.8,40,79.8,29.2c3.8-1.4,3-10.1-1.3-10.3c-28.5-1.3-52.2-8-71.6-29.9
				C392.8,301.8,388.6,315,393.1,321z"/>
		</g>
		<g>
			<path class="st2" d="M765.3,291.2c-17.8,23.5-50.8,40-79.8,29.2c-3.8-1.4-3-10.1,1.3-10.3c28.5-1.3,52.2-8,71.6-29.9
				C765.7,272,769.9,285.2,765.3,291.2z"/>
		</g>
	</g>
	<g class="st1">
		<path class="st2" d="M423.4,383c-21.5-9.3-44.6-14.8-68.6-15.5c-12.8-0.4-4-13.3,4.7-13.7c24.7-1.1,48.2,5.1,70.8,14.6
			c14.9,6.2,31.6,12.9,39.6,27.1c7.2,6.3,8.7,20.7-4.1,16.1c-38.4-13.9-71.8-6.4-107.6,10.9c-5.3,2.6-12.1-7.6-8.4-11.8
			C368,389.7,395.9,381.6,423.4,383z"/>
		<g>
			
				<ellipse transform="matrix(0.1602 -0.9871 0.9871 0.1602 249.3912 1062.967)" class="st2" cx="749.4" cy="384.9" rx="56.7" ry="56.7"/>
		</g>
	</g>
	<g class="st1">
		<path class="st6" d="M531.3,447.5c0,0-10.6,24.1,0,45.5c10.6,21.3,38.7,10.8,36.3-2.8c-2.4-13.6,0.1-31.7,0.1-31.7
			S539.9,446.9,531.3,447.5z"/>
		<path class="st2" d="M543.4,446.2c-5.4,13.7-3.2,30.4,4.3,42.9c1.1,1.8,3.4,1.3,2.6-1c-4.1-11.5-3.5-25.1,1-36.4
			C552.8,447.9,545.1,441.8,543.4,446.2z"/>
		<g>
			<g>
				<path class="st2" d="M497.9,458.7c12.2-14.1,28.9-16,45.1-8.7c6.7,3.1,13.6,9.5,21.2,10.8c6.2,1.1,11.2-0.8,16.8-3.1
					c25-10.1,26.3-23,59.9-8.4c3.1,1.3,3-2.6,1-3.9c-12.4-7.8-25.2-11.3-39.8-7c-3.9,1.2-7.3,2.9-10.9,4.9
					c-4.6,3.3-9.3,6.3-14.2,9.2c-11.9,2.8-21.9,0.7-30.1-6.4c-19.6-7.1-38.2-9.9-51.5,10.2C494.7,457.5,496.8,460,497.9,458.7
					L497.9,458.7z"/>
				<path class="st2" d="M567.9,466.4c-1.4,0-2.9-0.1-4.5-0.4c-5.8-1-11-4.3-15.5-7.2c-2.5-1.6-4.8-3.1-7-4c-15.2-6.9-29-4.3-39,7.3
					c0,0,0,0,0,0c-2.2,2.6-5.9,2.9-8.7,0.8c-2.7-2-4.2-6.1-2-9.5c15.5-23.5,37.8-19.4,57.6-12.2c0.6,0.2,1.2,0.5,1.6,1
					c6.8,5.8,14.9,7.6,24.7,5.4c4.5-2.7,8.9-5.5,13.1-8.5c0.2-0.1,0.4-0.2,0.6-0.3c3.4-1.8,7.3-3.9,11.9-5.3
					c14.6-4.3,29-1.8,44.1,7.6c3.5,2.2,4.9,7,3.1,10.4c-1.4,2.6-4.7,4.5-8.9,2.7c-22.4-9.7-28.1-6.4-39.4,0.1
					c-4.5,2.6-9.6,5.5-16.6,8.3C578.3,464.5,573.6,466.4,567.9,466.4z M497.9,458.7L497.9,458.7L497.9,458.7z M494,455.3
					C494,455.3,494,455.3,494,455.3C494,455.3,494,455.3,494,455.3z"/>
			</g>
		</g>
	</g>
</g>
<g class="st0">
	<g class="st1">
		<path class="st2" d="M602,419c-11.4,39.2-76.2,32.7-89.7-1.8c-3.2-8.2-24-4.2-20.2,5.5c19.2,49.1,115.4,51.3,130.8-1.8
			C625.7,411.1,604.5,410.4,602,419L602,419z"/>
	</g>
	<g class="st1">
		<path class="st3" d="M844,445.2c0,20.9-39.1,37.8-87.3,37.8s-87.3-16.9-87.3-37.8s39.1-37.8,87.3-37.8S844,424.3,844,445.2z"/>
		<path class="st3" d="M270.6,445.2c0,20.9,39.1,37.8,87.3,37.8c48.2,0,87.3-16.9,87.3-37.8s-39.1-37.8-87.3-37.8
			C309.7,407.3,270.6,424.3,270.6,445.2z"/>
	</g>
	<g class="st1">
		<g>
			<path class="st2" d="M348.8,441.8c33.1-16,66.2-32.1,99.4-48.1c6.5-3.2,5.7-9.9-1-12c-35.5-11-71-22-106.6-33.1
				c-9.4-2.9-23.1,8.7-9.7,12.9c35.5,11,71,22,106.6,33.1c-0.3-4-0.7-8-1-12c-33.1,16-66.2,32.1-99.4,48.1
				C324.4,436.9,340,446.1,348.8,441.8L348.8,441.8z"/>
		</g>
		<g>
			<path class="st2" d="M785.2,430.7c-33.1-16-66.2-32.1-99.4-48.1c-1.2,4-2.5,8-3.7,12c35.5-11,71-22,106.6-33.1
				c13.5-4.2,4.1-16.3-6.8-12.9c-35.5,11-71,22-106.6,33.1c-5.2,1.6-11.1,8.4-3.7,12c33.1,16,66.2,32.1,99.4,48.1
				C778.9,445.7,796.7,436.3,785.2,430.7L785.2,430.7z"/>
		</g>
	</g>
	<g class="st1">
		<g>
			<path class="st6" d="M318.3,461.5c-15.5,18.5-15.4,25.1-21.7,43.2c-0.5,1.4,3,2,4.1,0.3c12.3-18.4,14.2-24.3,24.5-42.7
				C326.6,459.8,320.6,458.9,318.3,461.5z"/>
			<path class="st6" d="M347.2,461.5c-15.5,18.5-15.4,25.1-21.7,43.2c-0.5,1.4,3,2,4.1,0.3c12.3-18.4,14.2-24.3,24.5-42.7
				C355.5,459.8,349.4,458.9,347.2,461.5z"/>
			<path class="st6" d="M376,461.5c-15.5,18.5-15.4,25.1-21.7,43.2c-0.5,1.4,3,2,4.1,0.3c12.3-18.4,14.2-24.3,24.5-42.7
				C384.3,459.8,378.3,458.9,376,461.5z"/>
		</g>
		<g>
			<path class="st6" d="M735.1,461.5c-15.5,18.5-15.4,25.1-21.7,43.2c-0.5,1.4,3,2,4.1,0.3c12.3-18.4,14.2-24.3,24.5-42.7
				C743.4,459.8,737.4,458.9,735.1,461.5z"/>
			<path class="st6" d="M764,461.5c-15.5,18.5-15.4,25.1-21.7,43.2c-0.5,1.4,3,2,4.1,0.3c12.3-18.4,14.2-24.3,24.5-42.7
				C772.3,459.8,766.2,458.9,764,461.5z"/>
			<path class="st6" d="M792.8,461.5c-15.5,18.5-15.4,25.1-21.7,43.2c-0.5,1.4,3,2,4.1,0.3c12.3-18.4,14.2-24.3,24.5-42.7
				C801.1,459.8,795.1,458.9,792.8,461.5z"/>
		</g>
	</g>
	<g class="st1">
		<g>
			<path class="st2" d="M776.6,314.1c-28.2-12.8-67-11.6-88.4,13c-2.8,3.2,2.3,10.9,6.3,8.9c27-13.1,52.2-18.7,81.2-8.3
				C786.5,331.7,783.8,317.4,776.6,314.1z"/>
		</g>
		<g>
			<path class="st2" d="M344.4,314.1c28.2-12.8,67-11.6,88.4,13c2.8,3.2-2.3,10.9-6.3,8.9c-27-13.1-52.2-18.7-81.2-8.3
				C334.4,331.7,337.1,317.4,344.4,314.1z"/>
		</g>
	</g>
</g>
<g class="st0">
	<g class="st1">
		<path class="st3" d="M844,444.4c0,20-37.5,36.3-83.7,36.3s-83.7-16.2-83.7-36.3c0-20,37.5-36.3,83.7-36.3S844,424.4,844,444.4z"/>
		<path class="st3" d="M294.6,444.4c0,20,37.5,36.3,83.7,36.3c46.2,0,83.7-16.2,83.7-36.3c0-20-37.5-36.3-83.7-36.3
			C332.1,408.1,294.6,424.4,294.6,444.4z"/>
	</g>
	<g class="st1">
		<g>
			<path class="st2" d="M786.6,318c-25.6-15.1-62.6-17.8-85.5,3.4c-3,2.8,1.1,10.6,5.1,9.1c27.1-9.7,51.7-12.5,78.2,0.4
				C794.3,335.8,793.2,321.9,786.6,318z"/>
		</g>
		<g>
			<path class="st2" d="M367.4,314.5c26-14.4,63.1-16.1,85.4,5.8c2.9,2.8-1.4,10.6-5.4,9c-26.8-10.5-51.3-14-78.2-1.8
				C359.3,332,360.8,318.2,367.4,314.5z"/>
		</g>
	</g>
	<g class="st1">
		<path class="st2" d="M693.3,419.7c15.7-21.1,32.3-42.9,49.8-62.5c2.2-2.4,9.1-6,12.1-3.1c20.8,19.9,42,39.5,62.1,60.1
			c5,5.2-8.5,16.2-13.5,11.7c-19.6-17.4-35.8-36.1-54.6-54.3c-16.2,17.3-31.9,36.8-46.8,55.3C696.4,434.6,688.7,426,693.3,419.7z"/>
		<path class="st2" d="M459.8,419.7c-15.7-21.1-32.3-42.9-49.8-62.5c-2.2-2.4-9.1-6-12.1-3.1c-20.8,19.9-42,39.5-62.1,60.1
			c-5,5.2,8.5,16.2,13.5,11.7c19.6-17.4,35.8-36.1,54.6-54.3c16.2,17.3,31.9,36.8,46.8,55.3C456.7,434.6,464.4,426,459.8,419.7z"/>
	</g>
	<g class="st1">
		<path class="st2" d="M507.6,404.9c-1.9,76.2,134.6,65.2,137.8-2.4c0.4-8.7-20-7.4-20.4,1.8c-2.4,50.1-98.4,55.8-97-1.2
			C528.3,394.3,507.9,395.7,507.6,404.9L507.6,404.9z"/>
	</g>
</g>
<g class="st0">
	<g class="st1">
		<ellipse class="st3" cx="760.3" cy="451" rx="83.7" ry="36.3"/>
		<ellipse class="st3" cx="378.3" cy="451" rx="83.7" ry="36.3"/>
	</g>
	<g class="st1">
		<g>
			<path class="st2" d="M815.2,332.6c-17-24.3-49.6-42.2-79.3-32.3c-3.8,1.3-3.4,10.1,0.9,10.4c28.7,2.4,52.2,10,71,32.7
				C814.9,351.9,819.6,338.8,815.2,332.6z"/>
		</g>
		<g>
			<path class="st2" d="M330.9,331.9c17.5-24,50.5-41.2,79.9-30.7c3.8,1.4,3.2,10.2-1.1,10.4c-28.7,1.8-52.4,8.9-71.6,31.3
				C330.9,351.3,326.4,338.1,330.9,331.9z"/>
		</g>
	</g>
	<g class="st1">
		<path class="st2" d="M412.4,394c-5.2,2.4,2.7,11.5,7.4,9.4c30.6-14.1-0.9-59.4-28.1-41.4c-34.4,22.8-4.6,69.1,30,60.8
			c44.6-10.6,52.2-68.3,11.7-88.8c-38.6-19.6-88.4,17.4-89.5,58.7c-1.2,42,54,76.4,87.5,44.9c0.6-0.5-0.4-2.3-1.1-1.8
			c-28.3,17.9-68.6,0.4-75.4-32.4c-5.3-25.6,13-47.4,35.5-58.3c29-14,73.8,13,52.2,49.6c-6.3,10.7-16.8,19-31,15.2
			c-20.3-5.4-21.9-16.7-20.4-24.4c2.2-11.1,12.1-16.3,19-12.6C421.8,379.1,423.1,388.5,412.4,394z"/>
		<path class="st2" d="M747.2,394c-5.2,2.4,2.7,11.5,7.4,9.4c30.6-14.1-0.9-59.4-28.1-41.4c-34.4,22.8-4.6,69.1,30,60.8
			c44.6-10.6,52.2-68.3,11.7-88.8c-38.6-19.6-88.4,17.4-89.5,58.7c-1.2,42,54,76.4,87.5,44.9c0.6-0.5-0.4-2.3-1.1-1.8
			c-28.3,17.9-68.6,0.4-75.4-32.4c-5.3-25.6,13-47.4,35.5-58.3c29-14,73.8,13,52.2,49.6c-6.3,10.7-16.8,19-31,15.2
			c-20.3-5.4-21.9-16.7-20.4-24.4c2.2-11.1,12.1-16.3,19-12.6C756.5,379.1,757.8,388.5,747.2,394z"/>
	</g>
	<g class="st1">
		<path class="st2" d="M498.4,464.3c0-4.5,0.2-9.8,2-13.9c0.2-6.2,3.1-9.2,8.7-9c6.4-3.4,9.1-0.6,8.3,8.4c4,9.8-1.1,19.8,10.5,24.8
			c27.7,12,36.1-46.5,52.9-39.6c5.3,2.2,0.3,30.4,7.2,37c4.9,4.6,13.1,5.5,19.3,3.8c9.6-2.6,13.8-10,18.8-18
			c6.3-10,5.6-18.3,8.7-3.1c1.4,6.9,4,13.7,5.4,20.6c1.9,9,22.2,6.8,20.4-1.8c-4-19-14.5-60.9-41.2-38.6c-3.8,3.2-6.2,7.6-8.8,11.8
			c-1.3,2.5-2.6,4.9-3.8,7.4c-2.7,7.8-3.9,8.9-3.5,3.3c-4.1-5.5,0.7-20.1-3.2-27.8c-5.5-10.8-18.6-15.4-29.9-11.8
			c-9.3,2.9-35.6,33.8-31.8,37.9c-4.3-4.6-1.5-18.1-7.1-24.6c-2.8-3.2-5.9-5.2-9.9-6.5c-26.6-9-43.4,18.7-43.5,41.3
			C477.9,474.9,498.3,473.5,498.4,464.3L498.4,464.3z"/>
	</g>
</g>
<g class="st0">
	<g class="st1">
		<ellipse class="st3" cx="762.5" cy="448.7" rx="85.5" ry="37"/>
		<ellipse class="st3" cx="372.1" cy="448.7" rx="85.5" ry="37"/>
	</g>
	<g class="st1">
		<path class="st2" d="M522.6,490.4c17.2-17.8,34.3-35.6,51.5-53.4c-6,0.5-12,1.1-18,1.6c18.8,17.8,37.7,35.6,56.5,53.4
			c6.1,5.8,25.5-0.7,17.4-8.4c-18.8-17.8-37.7-35.6-56.5-53.4c-4.9-4.7-13.7-2.9-18,1.6c-17.2,17.8-34.3,35.6-51.5,53.4
			C496.6,492.9,516.8,496.4,522.6,490.4L522.6,490.4z"/>
	</g>
	<g class="st1">
		<circle class="st2" cx="736.3" cy="385" r="58.4"/>
		<g>
			<path class="st5" d="M771.7,365c0,11.3-9.1,20.4-20.4,20.4c-11.3,0-20.4-9.1-20.4-20.4c0-11.3,9.1-20.4,20.4-20.4
				C762.6,344.6,771.7,353.7,771.7,365z"/>
			<path class="st5" d="M736.6,397.6c0,5.1-4.1,9.2-9.2,9.2s-9.2-4.1-9.2-9.2c0-5.1,4.1-9.2,9.2-9.2S736.6,392.5,736.6,397.6z"/>
		</g>
		<circle class="st2" cx="394.2" cy="385" r="58.4"/>
		<g>
			<path class="st5" d="M429.6,365c0,11.3-9.1,20.4-20.4,20.4c-11.3,0-20.4-9.1-20.4-20.4c0-11.3,9.1-20.4,20.4-20.4
				C420.5,344.6,429.6,353.7,429.6,365z"/>
			<path class="st5" d="M394.6,397.6c0,5.1-4.1,9.2-9.2,9.2c-5.1,0-9.2-4.1-9.2-9.2c0-5.1,4.1-9.2,9.2-9.2
				C390.5,388.4,394.6,392.5,394.6,397.6z"/>
		</g>
	</g>
	<g class="st1">
		<g>
			<path class="st2" d="M732.9,315.6c17.3,24.9,50.6,43.2,80.9,33.2c3.9-1.3,3.5-10.3-0.9-10.7c-29.3-2.5-53.3-10.3-72.5-33.6
				C733.3,295.8,728.4,309.2,732.9,315.6z"/>
		</g>
		<g>
			<path class="st2" d="M397.6,315.6c-17.3,24.9-50.6,43.2-80.9,33.2c-3.9-1.3-3.5-10.3,0.9-10.7c29.3-2.5,53.3-10.3,72.5-33.6
				C397.2,295.8,402.1,309.2,397.6,315.6z"/>
		</g>
	</g>
	<g class="st1">
		<path class="st7" d="M400.7,449.2c-4.4,10-25.7,10.3-47.8,0.7c-22-9.6-36.4-25.5-32-35.5c4.4-10,25.7-10.3,47.8-0.7
			C390.7,423.4,405,439.2,400.7,449.2z"/>
		<path class="st7" d="M734,449.2c4.4,10,25.7,10.3,47.8,0.7c22-9.6,36.4-25.5,32-35.5c-4.4-10-25.7-10.3-47.8-0.7
			C743.9,423.4,729.6,439.2,734,449.2z"/>
	</g>
</g>
<g class="st0">
	<g class="st1">
		<path class="st8" d="M761.2,414.8c-2.8,0-5.6-0.7-8.1-2l-26.9-14.1l-26.9,14.1c-2.5,1.3-5.3,2-8.1,2c-5.1,0-10-2.3-13.4-6.2
			c-3.3-3.9-4.7-9.1-3.8-14.2l5.1-29.9l-21.8-21.2c-4.8-4.7-6.5-11.5-4.4-17.9c2.1-6.4,7.5-10.9,14.1-11.9l30.1-4.4l13.4-27.2
			c3-6,9-9.7,15.6-9.7c6.7,0,12.7,3.7,15.6,9.7l13.4,27.2l30.1,4.4c6.6,1,12,5.5,14.1,11.9c2.1,6.4,0.4,13.2-4.4,17.9l-21.8,21.2
			l5.1,29.9c0.9,5.1-0.5,10.2-3.8,14.2C771.2,412.5,766.4,414.8,761.2,414.8z"/>
		<path class="st9" d="M726.2,281.3c3,0,5.9,1.5,7.5,4.6l13.6,27.6c1.2,2.5,3.6,4.2,6.3,4.5l30.5,4.4c6.8,1,9.5,9.4,4.6,14.2
			l-22.1,21.5c-2,1.9-2.9,4.7-2.4,7.4l5.2,30.4c0.9,5.4-3.3,9.7-8.2,9.7c-1.3,0-2.6-0.3-3.9-1l-27.3-14.3c-1.2-0.6-2.5-1-3.9-1
			c-1.3,0-2.7,0.3-3.9,1l-27.3,14.3c-1.3,0.7-2.6,1-3.9,1c-4.8,0-9.1-4.4-8.2-9.7l5.2-30.4c0.5-2.7-0.4-5.4-2.4-7.4l-22.1-21.5
			c-4.9-4.8-2.2-13.2,4.6-14.2l30.5-4.4c2.7-0.4,5-2.1,6.3-4.5l13.6-27.6C720.3,282.8,723.2,281.3,726.2,281.3 M726.2,263
			c-10.2,0-19.3,5.7-23.8,14.8l-11.3,22.9l-25.3,3.7c-10.1,1.5-18.3,8.4-21.4,18.1c-3.1,9.7-0.6,20.1,6.7,27.2l18.3,17.9l-4.3,25.2
			c-1.3,7.7,0.8,15.6,5.8,21.6c5.1,6,12.5,9.5,20.3,9.5c4.3,0,8.5-1.1,12.4-3.1l22.6-11.9l22.6,11.9c3.8,2,8.1,3.1,12.4,3.1
			c7.8,0,15.3-3.5,20.3-9.5c5-6,7.2-13.8,5.8-21.6l-4.3-25.2l18.3-17.9c7.3-7.1,9.9-17.5,6.7-27.2c-3.1-9.7-11.4-16.6-21.4-18.1
			l-25.3-3.7L750,277.8C745.5,268.7,736.4,263,726.2,263L726.2,263z"/>
	</g>
	<g class="st1">
		<path class="st8" d="M447.4,413.2c-2.8,0-5.6-0.7-8.1-2L412.4,397l-26.9,14.1c-2.5,1.3-5.3,2-8.1,2c-5.1,0-10-2.3-13.4-6.2
			c-3.3-3.9-4.7-9.1-3.8-14.2l5.1-29.9l-21.8-21.2c-4.8-4.7-6.5-11.5-4.4-17.9c2.1-6.4,7.5-10.9,14.1-11.9l30.1-4.4l13.4-27.2
			c3-6,9-9.7,15.6-9.7c6.7,0,12.7,3.7,15.6,9.7l13.4,27.2l30.1,4.4c6.6,1,12,5.5,14.1,11.9c2.1,6.4,0.4,13.2-4.4,17.9l-21.8,21.2
			l5.1,29.9c0.9,5.1-0.5,10.2-3.8,14.2C457.4,410.9,452.6,413.2,447.4,413.2z"/>
		<path class="st9" d="M412.4,279.7c3,0,5.9,1.5,7.5,4.6l13.6,27.6c1.2,2.5,3.5,4.2,6.3,4.5l30.5,4.4c6.8,1,9.5,9.4,4.6,14.2
			l-22.1,21.5c-2,1.9-2.9,4.7-2.4,7.4l5.2,30.4c0.9,5.4-3.3,9.7-8.2,9.7c-1.3,0-2.6-0.3-3.9-1l-27.3-14.3c-1.2-0.6-2.5-1-3.9-1
			c-1.3,0-2.7,0.3-3.9,1l-27.3,14.3c-1.3,0.7-2.6,1-3.9,1c-4.8,0-9.1-4.4-8.2-9.7l5.2-30.4c0.5-2.7-0.4-5.4-2.4-7.4L350,335.1
			c-4.9-4.8-2.2-13.2,4.6-14.2l30.5-4.4c2.7-0.4,5-2.1,6.3-4.5l13.6-27.6C406.5,281.2,409.5,279.7,412.4,279.7 M412.4,261.4
			c-10.2,0-19.3,5.7-23.8,14.8l-11.3,22.9l-25.3,3.7c-10.1,1.5-18.3,8.4-21.4,18.1c-3.1,9.7-0.6,20.1,6.7,27.2l18.3,17.9l-4.3,25.2
			c-1.3,7.7,0.8,15.6,5.8,21.6c5.1,6,12.5,9.5,20.3,9.5c4.3,0,8.5-1.1,12.4-3.1l22.6-11.9l22.6,11.9c3.8,2,8.1,3.1,12.4,3.1
			c7.8,0,15.3-3.5,20.3-9.5c5-6,7.2-13.8,5.8-21.6l-4.3-25.2l18.3-17.9c7.3-7.1,9.9-17.5,6.7-27.2c-3.1-9.7-11.4-16.6-21.4-18.1
			l-25.3-3.7l-11.3-22.9C431.7,267.1,422.6,261.4,412.4,261.4L412.4,261.4z"/>
	</g>
	<path class="st10" d="M399.6,522c34.1,0,61.8-13.1,61.8-29.2c0-16.1-27.8-29.2-61.8-29.2c-34.1,0-61.9,13.1-61.9,29.2
		C337.7,508.9,365.5,522,399.6,522z"/>
	<path class="st10" d="M744.8,522c34.1,0,61.9-13.1,61.9-29.2c0-16.1-27.8-29.2-61.9-29.2c-34.1,0-61.8,13.1-61.8,29.2
		C683,508.9,710.8,522,744.8,522z"/>
	<g class="st1">
		<g>
			<g>
				<path class="st9" d="M572.2,497.6c-27.3,0-49.5-22.2-49.5-49.5c0-6.9,5.6-12.4,12.4-12.4c6.9,0,12.4,5.6,12.4,12.4
					c0,13.6,11,24.6,24.6,24.6c13.6,0,24.6-11,24.6-24.6c0-6.9,5.6-12.4,12.4-12.4c6.9,0,12.4,5.6,12.4,12.4
					C621.7,475.4,599.5,497.6,572.2,497.6z"/>
			</g>
		</g>
	</g>
	<circle class="st11" cx="434.4" cy="343.5" r="11.4"/>
	<path class="st11" d="M418.4,360.7c0,4-3.3,7.3-7.3,7.3c-4,0-7.3-3.3-7.3-7.3c0-4,3.3-7.3,7.3-7.3
		C415.1,353.5,418.4,356.7,418.4,360.7z"/>
	<path class="st11" d="M756.2,348c0,6.3-5.1,11.4-11.4,11.4c-6.3,0-11.4-5.1-11.4-11.4s5.1-11.4,11.4-11.4
		C751.1,336.6,756.2,341.7,756.2,348z"/>
	<path class="st11" d="M728.8,365.3c0,4-3.3,7.3-7.3,7.3c-4,0-7.3-3.3-7.3-7.3c0-4,3.3-7.3,7.3-7.3
		C725.5,358,728.8,361.3,728.8,365.3z"/>
</g>
<g>
	<g>
		
			
				<path class="cheeck-l" d="M467.3,476.6c-0.2,14-28.8,24.9-63.8,24.3c-35-0.6-63.2-12.5-62.9-26.5c0.3-14,28.8-25,63.8-24.3
					C439.3,450.7,467.5,462.6,467.3,476.6z"/>
			
			
			<g class="eye-l" >
			<circle class="st9" cx="393.2" cy="341.1" r="63.7"/>
				<circle class="st5" cx="412.2" cy="319.4" r="22.6"/>
				<circle class="st5" cx="383.4" cy="348.1" r="14.4"/>
			</g>
		
		
			
				<path class="cheeck-r" d="M809,481.5c-0.2,14-28.8,24.9-63.8,24.3c-35-0.6-63.2-12.5-62.9-26.5c0.3-14,28.8-25,63.8-24.3
					C781.1,455.6,809.3,467.5,809,481.5z"/>
			<g class="eye-r">
			<circle class="st9" cx="744.8" cy="341.1" r="63.7"/>
			<circle class="st5" cx="769.9" cy="319.4" r="22.6"/>
		   <circle  class="st5" r="16" cy="350" cx="722"/>
			</g>
		
	</g>
	<g>
		<path class="st9" d="M632,385.9H506.6c-9.9,0-17.3,9.1-15.3,18.8c7.5,36.2,39.6,63.4,78,63.4s70.5-27.2,78-63.4
			C649.3,395.1,641.9,385.9,632,385.9z"/>
		<g>
			<path class="st12" d="M569.1,451.3c16.3,0,31.2-7.9,40.5-20.3c-11-10.8-26-17.5-42.6-17.5c-15.4,0-29.4,5.8-40.1,15.2
				C536.1,442.4,551.8,451.3,569.1,451.3z"/>
		</g>
	</g>
</g>


</svg>
